<svg xmlns="http://www.w3.org/2000/svg" version="1.1" xmlns:xlink="http://www.w3.org/1999/xlink" xmlns:svgjs="http://svgjs.com/svgjs" width="1895" height="300" transform="matrix(1,0,0,1,0,0)">
  <text font-family="DM Sans" font-size="260" text-anchor="left" x="310" charspacing="20px">
    <tspan dy="239.20000000000002" x="310">My Trades</tspan>
  </text>
  <path transform="matrix(1,0,0,1,50,50)" d="M0,20.833A20.833333333333332,20.833333333333332,90,0,1,20.833,0L20.833,0A20.833333333333332,20.833333333333332,90,0,1,41.667,20.833L41.66666666666667,50L0,50ZM0,50L41.66666666666667,50L41.66666666666667,100L0,100ZM0,100L41.66666666666667,100L41.667,129.167A20.83333333333334,20.83333333333334,-270,0,1,20.833,150L20.833,150A20.833333333333332,20.833333333333332,90,0,1,0,129.167ZM50,50L91.66666666666667,50L91.667,79.167A20.83333333333334,20.83333333333334,-270,0,1,70.833,100L70.833,100A20.833333333333332,20.833333333333332,90,0,1,50,79.167ZM50,20.833A20.833333333333332,20.833333333333332,90,0,1,70.833,0L70.833,0A20.833333333333332,20.833333333333332,90,0,1,91.667,20.833L91.66666666666667,50L50,50ZM100,70.833A20.83333333333334,20.83333333333334,90,0,1,120.833,50L120.833,50A20.83333333333334,20.83333333333334,90,0,1,141.667,70.833L141.66666666666669,100L100,100ZM100,100L141.66666666666669,100L141.66666666666669,150L100,150ZM100,150L141.66666666666669,150L141.667,179.167A20.833333333333346,20.833333333333346,-270,0,1,120.833,200L120.833,200A20.83333333333334,20.83333333333334,90,0,1,100,179.167ZM150,20.833A20.83333333333334,20.83333333333334,90,0,1,170.833,0L170.833,0A20.83333333333334,20.83333333333334,90,0,1,191.667,20.833L191.667,29.167A20.833333333333346,20.833333333333346,-270,0,1,170.833,50L170.833,50A20.83333333333334,20.83333333333334,90,0,1,150,29.167Z"/>
</svg>